<svg width="30" height="33" viewBox="0 0 30 33" fill="none" xmlns="http://www.w3.org/2000/svg">
<path d="M27.6433 8.23274C27.6433 11.675 21.996 14.4655 15.0297 14.4655C8.06334 14.4655 2.41602 11.675 2.41602 8.23274M27.6433 8.23274C27.6433 4.79049 21.996 2 15.0297 2C8.06334 2 2.41602 4.79049 2.41602 8.23274M27.6433 8.23274V16.1721M2.41602 8.23274V16.1721M27.6433 16.1721C27.6433 19.6144 21.996 22.4049 15.0297 22.4049C8.06334 22.4049 2.41602 19.6144 2.41602 16.1721M27.6433 16.1721V24.1115C27.6433 27.5538 21.996 30.3442 15.0297 30.3442C8.06334 30.3442 2.41602 27.5538 2.41602 24.1115V16.1721" stroke="#2F2F2F" stroke-width="4"/>
</svg>
